# xmcd CD database file
#
# Track frame offsets:
#	150
#	11860
#	27031
#	43150
#	57163
#	70635
#	88274
#	103425
#	117366
#	131228
#	146240
#	159229
#	171394
#	183011
#	197739
#	211186
#	219448
#	233374
#	247424
#	261256
#	274576
#	286299
#	298938
#	328013
#
# Disc length: 4798 seconds
#
# Revision: 1
# Processed by: cddbd v1.5.2PL0 Copyright (c) Steve Scherf et al.
# Submitted via: CDex 1.51
#
DISCID=7812bc18
DTITLE=Sidney Bechet - Five Classic Albums plus - CD2
DYEAR=1900
DGENRE=Jazz
TTITLE0=La Complainte Des Infideles
TTITLE1=Brave Margot
TTITLE2=Jacqueline
TTITLE3=La Canne-Le Fossoyeur
TTITLE4=Big Chief
TTITLE5=Nuages
TTITLE6=Elizabeth II
TTITLE7=Pleure Pas Nelly
TTITLE8=Rose De Picardie
TTITLE9=Temperamental
TTITLE10=When I Grow Too Old To Dream
TTITLE11=Leilie
TTITLE12=La Complainte De Mackie (Mack The Knife)
TTITLE13=Le Chant Des Canons
TTITLE14=Some Sweet Day
TTITLE15=Chante Chante
TTITLE16=A Moi d'Payer
TTITLE17=Blues Dans Le Blues
TTITLE18=Trottoirs De Paris
TTITLE19=Pourtant
TTITLE20=Un Ange Comme Ca
TTITLE21=South Rampart Street Parade
TTITLE22=Halle Hallelujah - Les Hommes Sont Gerereux - L'Enchainee d'Amour - Les Blues Des Mes Reves - HAlle Hallelujah
TTITLE23=Halle Hallelujah - I Had It All But It's All Gone Now - BLues - Halle Hallelijah
EXTD=
EXTT0=
EXTT1=
EXTT2=
EXTT3=
EXTT4=
EXTT5=
EXTT6=
EXTT7=
EXTT8=
EXTT9=
EXTT10=
EXTT11=
EXTT12=
EXTT13=
EXTT14=
EXTT15=
EXTT16=
EXTT17=
EXTT18=
EXTT19=
EXTT20=
EXTT21=
EXTT22=
EXTT23=
PLAYORDER=
